<?xml version="1.0" encoding="utf-8"?>
<!-- Generator: Adobe Illustrator 24.0.1, SVG Export Plug-In . SVG Version: 6.00 Build 0)  -->
<svg version="1.1" id="Layer_1" xmlns="http://www.w3.org/2000/svg" xmlns:xlink="http://www.w3.org/1999/xlink" x="0px" y="0px"
	 viewBox="0 0 750 750" style="enable-background:new 0 0 750 750;" xml:space="preserve">
<style type="text/css">
	.st0{fill:#FFFFFF;}
	.st1{fill:#FDFFFA;}
	.st2{fill:#FFFFFF;stroke:#FFFFFF;stroke-miterlimit:10;}
</style>
<g>
	<path d="M287.11,374.61h-3.63c-49.5,0-89.63-40.13-89.63-89.63v-6.9c0-49.5,40.13-89.63,89.63-89.63h3.63
		c49.5,0,89.63,40.13,89.63,89.63v6.9C376.73,334.49,336.61,374.61,287.11,374.61z"/>
	<circle class="st0" cx="285.29" cy="281.54" r="36.44"/>
</g>
<g>
	<rect x="376.73" y="188.46" width="182.89" height="186.15"/>
	<circle class="st0" cx="468.18" cy="280.77" r="36.44"/>
</g>
<g>
	<path d="M102.19,750h-3.63c-49.21,0-89.11-39.9-89.11-89.11v-97.04h182.89v96.01C192.33,709.64,151.97,750,102.19,750z"/>
	<rect x="9.44" y="563.85" class="st1" width="182.89" height="92.3"/>
</g>
<g>
	<path d="M469.48,559.9h-3.63c-49.21,0-89.11-39.9-89.11-89.11v-97.04h182.89v96.01C559.62,519.54,519.26,559.9,469.48,559.9z"/>
	<rect x="376.73" y="373.75" class="st1" width="182.89" height="92.3"/>
</g>
<path d="M192.33,376.16h-54.78c-70.75,0-128.1,57.35-128.1,128.1v52.71c0,2.95,2.39,5.33,5.33,5.33h37.07
	c77.58,0,140.48-62.89,140.48-140.48V376.16z"/>
<circle class="st0" cx="100.12" cy="468.8" r="36.44"/>
<g>
	<rect x="5.98" y="0" width="182.89" height="186.15"/>
	<circle class="st0" cx="97.42" cy="92.3" r="36.44"/>
</g>
<g>
	<path d="M654.4,190.01h-3.63c-49.5,0-89.63-40.13-89.63-89.63v-6.9c0-49.5,40.13-89.63,89.63-89.63h3.63
		c49.5,0,89.63,40.13,89.63,89.63v6.9C744.02,149.88,703.9,190.01,654.4,190.01z"/>
	<circle class="st0" cx="652.58" cy="96.93" r="36.44"/>
</g>
<g>
	<path d="M189.72,98.32v-3.63c0-49.21,39.9-89.11,89.11-89.11h97.04v182.89h-96.01C230.08,188.46,189.72,148.11,189.72,98.32z"/>
	
		<rect x="238.28" y="50.87" transform="matrix(-1.836970e-16 1 -1 -1.836970e-16 426.743 -232.6998)" class="st1" width="182.89" height="92.3"/>
</g>
<g>
	<rect x="376.73" y="3.86" class="st0" width="182.89" height="186.15"/>
	<path d="M430.18,190.01c0,0-4.39-46.03,38.88-46.03s36.92,46.03,36.92,46.03"/>
	<rect x="376.73" y="3.86" width="182.89" height="52.33"/>
</g>
<g>
	<path d="M192.54,278.89v-3.63c0-49.21-39.9-89.11-89.11-89.11H6.39v182.89h96.01C152.18,369.04,192.54,328.68,192.54,278.89z"/>
	
		<rect x="-38.91" y="231.44" transform="matrix(-4.489671e-11 1 -1 -4.489671e-11 330.1299 225.0554)" class="st1" width="182.89" height="92.3"/>
</g>
<g>
	<rect x="559.62" y="190.21" class="st0" width="182.89" height="186.15"/>
	<path d="M613.06,376.36c0,0-4.39-46.03,38.88-46.03c43.27,0,36.92,46.03,36.92,46.03"/>
	<rect x="559.62" y="190.21" width="182.89" height="52.33"/>
</g>
<g>
	<rect x="192.33" y="376.16" class="st0" width="182.89" height="186.15"/>
	<path d="M245.77,562.31c0,0-4.39-46.03,38.88-46.03s36.92,46.03,36.92,46.03"/>
	<rect x="192.33" y="376.16" width="182.89" height="52.33"/>
</g>
<g>
	<rect x="561.14" y="666.78" class="st2" width="182.89" height="83.22"/>
	<path d="M615.87,750c0,0-4.39-47.01,38.88-47.01S691.67,750,691.67,750"/>
	<path d="M744.02,666.78H561.14v-16.33c0-50.01,40.54-90.55,90.55-90.55h3.63c48.99,0,88.71,39.72,88.71,88.71V666.78z"/>
	<path class="st2" d="M614.38,667.11c0,0-4.39-47.01,38.88-47.01s36.92,47.01,36.92,47.01"/>
</g>
<g>
	<rect x="560.94" y="373.75" width="182.89" height="186.15"/>
	<circle class="st0" cx="652.38" cy="466.06" r="36.44"/>
</g>
<g>
	<path d="M235.52,563.85h-41.67v46.67c0,77.04,62.45,139.48,139.48,139.48h43.4v-44.93C376.73,627.07,313.51,563.85,235.52,563.85z"
		/>
	<circle class="st0" cx="285.94" cy="657.7" r="36.44"/>
</g>
<g>
	<rect x="376.73" y="563.73" width="182.89" height="186.27"/>
	<path class="st0" d="M430.18,750c0,0-4.39-46.06,38.88-46.06S505.98,750,505.98,750"/>
	<rect x="376.73" y="563.73" class="st0" width="182.89" height="52.36"/>
</g>
</svg>
