<?xml version="1.0" standalone="no"?>
<!DOCTYPE svg PUBLIC "-//W3C//DTD SVG 20010904//EN"
 "http://www.w3.org/TR/2001/REC-SVG-20010904/DTD/svg10.dtd">
<svg version="1.0" xmlns="http://www.w3.org/2000/svg"
 width="700.000000pt" height="700.000000pt" viewBox="0 0 700.000000 700.000000"
 preserveAspectRatio="xMidYMid meet">
<metadata>
Created by potrace 1.14, written by Peter Selinger 2001-2017
</metadata>
<g transform="translate(0.000000,700.000000) scale(0.100000,-0.100000)"
fill="#000000" stroke="none">
<path d="M3368 6935 c-2 -2 -44 -6 -95 -9 -50 -4 -100 -8 -110 -10 -10 -2 -40
-7 -68 -10 -97 -13 -121 -17 -245 -43 -549 -111 -1099 -381 -1530 -752 -94
-81 -286 -273 -366 -366 -285 -331 -508 -722 -651 -1139 -34 -100 -97 -332
-108 -396 -3 -19 -8 -42 -10 -50 -3 -8 -7 -32 -9 -54 -3 -21 -8 -46 -10 -55
-5 -17 -12 -66 -22 -166 -3 -33 -8 -71 -11 -85 -3 -14 -8 -861 -10 -1883 l-4
-1857 3381 0 3380 0 -3 1908 c-2 1049 -6 1916 -9 1927 -3 11 -9 52 -13 90 -4
39 -9 79 -11 90 -2 11 -7 45 -10 75 -3 30 -8 58 -10 61 -2 4 -6 24 -9 45 -4
22 -8 47 -11 56 -3 9 -7 25 -9 35 -53 256 -175 581 -319 848 -100 187 -279
447 -406 590 -131 148 -354 360 -479 455 -236 179 -511 339 -756 440 -44 18
-93 39 -110 45 -16 7 -41 16 -55 20 -14 3 -34 10 -45 15 -40 17 -197 63 -255
75 -8 2 -35 8 -60 15 -25 7 -56 14 -70 16 -14 2 -45 8 -70 14 -25 5 -67 12
-95 16 -27 4 -54 8 -60 9 -5 2 -39 5 -75 9 -36 4 -81 9 -100 12 -35 5 -467 13
-472 9z"/>
</g>
</svg>
